<?xml version="1.0" encoding="utf-8"?>
<!-- Generator: Adobe Illustrator 21.1.0, SVG Export Plug-In . SVG Version: 6.00 Build 0)  -->
<svg version="1.1" id="Layer_1" xmlns="http://www.w3.org/2000/svg" xmlns:xlink="http://www.w3.org/1999/xlink" x="0px" y="0px"
	 viewBox="0 0 512 512" style="enable-background:new 0 0 512 512;" xml:space="preserve">
<style type="text/css">
	.st0{fill:#FFD166;}
</style>
<title></title>
<g id="_1">
	<path class="st0" d="M258.4,313c-17.6,0-34.7-6.1-48.3-17.4l0,0c-38.2-31.7-59.6-79.4-57.9-129l0.6-16.7c2-58.3,50.8-104,109.1-102
		c55.5,1.9,100.1,46.5,102,102l0.6,16.7c1.7,49.6-19.6,97.3-57.9,129C293.2,306.9,276.1,313,258.4,313z M229.3,272.5
		c16.9,14,41.4,14,58.3,0c31-25.9,48.3-64.5,47-104.9L334,151c-1.5-41.8-36.6-74.4-78.4-72.8c-39.6,1.4-71.4,33.2-72.8,72.8
		l-0.6,16.7C180.9,208,198.3,246.7,229.3,272.5z"/>
	<path class="st0" d="M379.4,450h-242c-8.3,0-15-6.7-15-15v-54.1c-0.1-51.9,33.1-98,82.3-114.5c7.8-2.8,16.4,1.2,19.2,9
		c2.8,7.8-1.2,16.4-9,19.2c-0.2,0.1-0.5,0.2-0.7,0.2c-37,12.4-61.9,47-61.9,86V420h212v-39.1c0-39-24.9-73.6-61.9-86
		c-7.9-2.4-12.4-10.8-9.9-18.7c2.4-7.9,10.8-12.4,18.7-9.9c0.2,0.1,0.5,0.1,0.7,0.2c49.2,16.5,82.4,62.6,82.3,114.5v54
		C394.4,443.3,387.7,450,379.4,450z"/>
</g>
</svg>
