<?xml version="1.0" encoding="utf-8"?>
<!-- Generator: Adobe Illustrator 21.1.0, SVG Export Plug-In . SVG Version: 6.00 Build 0)  -->
<svg version="1.1" id="Layer_1" xmlns="http://www.w3.org/2000/svg" xmlns:xlink="http://www.w3.org/1999/xlink" x="0px" y="0px"
	 viewBox="0 0 512 512" style="enable-background:new 0 0 512 512;" xml:space="preserve">
<style type="text/css">
	.st0{fill:#F54E48;}
</style>
<title></title>
<g id="_1">
	<path class="st0" d="M395.5,450H125.8c-8.3,0-15-6.7-15-15V197c0-8.3,6.7-15,15-15s15,6.7,15,15v223h239.7V197c0-8.3,6.7-15,15-15
		s15,6.7,15,15v238C410.5,443.3,403.8,450,395.5,450z"/>
	<path class="st0" d="M445.1,261.6c-4,0-7.8-1.6-10.6-4.4L260.6,83.4L86.8,257.3c-6,5.8-15.5,5.6-21.2-0.4c-5.6-5.8-5.6-15,0-20.8
		L250,51.6c5.9-5.9,15.4-5.9,21.2,0l184.5,184.5c5.9,5.9,5.8,15.4,0,21.2C452.9,260.1,449.1,261.6,445.1,261.6L445.1,261.6z"/>
	<path class="st0" d="M304.1,450h-87c-8.3,0-15-6.7-15-15V305.5c0-8.3,6.7-15,15-15l0,0h87c8.3,0,15,6.7,15,15l0,0V435
		C319.1,443.3,312.4,450,304.1,450z M232.1,420h57v-99.5h-57V420z"/>
</g>
</svg>
