<svg id="Layer_2" data-name="Layer 2" xmlns="http://www.w3.org/2000/svg" viewBox="0 0 702.89 140.17"><defs><style>.cls-1{fill:#c2a598;}</style></defs><title>Ryo-Handwritten-Logo</title><path class="cls-1" d="M238.5,68.2a3.67,3.67,0,0,0-1.08-.38c-8.27-3.11-19.8,4.52-23.92,11.48a8.62,8.62,0,0,0-.94,7.34c-2.94-4.17-5.58-9.26-3.76-12.54l-.17,0c.72-1.51-3.73-.93-4.13-.83-1.8.3-5.1,1-6.1,2.8a4.21,4.21,0,0,0-.26.58c-.72,1.34-1.48,2.71-2.29,4l0-.09a23.36,23.36,0,0,1-1.3-6.8c-.2-1.8-10.7,0-10.5,2.7.2,3.4.8,9.1,4.2,10.9,3.1,1.7,8.2-.1,10.9-1.5.25-.13.49-.27.73-.41,2.63,5.53,6.59,10,10.88,14.17-3.5-1-7-2.13-10.41-3.25Q183.66,91,167.46,84.59c0-3.86,0-7.72-.09-11.57,3.48-1.63,7-3.13,10.63-4.62,10-4.1,20.1-7.8,30.2-11.6,5.5-2,18.2-5.7,18.4-13.4.2-8.6-16.5-12.9-22.9-15.1-11.2-3.7-23.2-5.3-34.9-6.5-30.2-3-60.8-2.8-91.2-2-19.6.5-39.1,1.3-58.7,2.8-2,.1-5.8.7-6.9,2.7s.89,2.5,2.68,2.5l-.08.1L16,27.8H23.1A13.33,13.33,0,0,0,27.32,27C70,24.21,113.43,23,156,26.5c12.4,1,25.2,2.3,37.2,5.9,4.8,1.5,26.5,7.6,22.3,15.1-2.1,3.7-9.2,5.2-12.8,6.5-5.4,2-10.8,4-16.2,6.1-6.45,2.45-12.9,5-19.25,7.81q-.08-3.31-.15-6.61c-.2-9.9-.5-19.8-.9-29.8,0-1.6-10.5,0-10.4,2.8.5,9.9.8,19.8.9,29.8.06,2.85.13,5.71.19,8.57-4.08,1.88-10.15,4.85-10.89,8.63-.7,3.5,4.3,4.6,6.8,5.6l4.2,1.67a175.2,175.2,0,0,1-1.2,19.23c-.1,1.1,10,.3,10.4-2.8.55-4.13.87-8.3,1.06-12.48,9.69,3.63,19.47,7,29.34,10.08,2.41.74,4.82,1.47,7.23,2.18-.62.18-1.11.35-1.33.42-11,3.5-23.8,11.3-18.5,24.6,3.9,9.9,15.3,19.7,26.2,19.9,11.9.3,25.8-6.7,29.4-18.7,2.66-9.08-.95-16.12-6.37-22.37.53-.15,1.05-.32,1.57-.53,1.4-.6,4-1.9,2.9-3.7-.8-1.28-3.9-.7-5.73-.17l-.17,0c-.8-.1-1.6-.1-2.4-.2l-.67-.09c-3.65-3.56-7.53-7-10.69-10.45A23.17,23.17,0,0,0,229.4,97.8c7.8.5,16.6-3.3,19.4-11C252.1,77.9,245.8,72.5,238.5,68.2ZM157,79c0,.38,0,.76,0,1.14A1.11,1.11,0,0,1,157,79Zm64.9,64.49c-8,6-19.1-4-23.9-10.3-2.9-3.8-5.3-8.6-4.8-13.4.7-7,6.8-10.5,12.9-12.4a8.08,8.08,0,0,0,2.66-1.24c3.19.85,6.39,1.63,9.64,2.24l1.87.33c1,1,1.92,2,2.83,3C231.4,121,232.6,135.4,221.9,143.5Zm9.24-39-.24.1Zm4.57-11c.29,0,.34.2,0,0Zm-.2-.13A7.1,7.1,0,0,0,233.8,93a24.13,24.13,0,0,1-5.1-2.5c-2.9-1.9-6.1-4.6-6.3-8.4-.1-3,1.9-5.5,4-7.5a20.91,20.91,0,0,1,2.9-2.3l.17.05c4.39,2.57,9.83,6.18,9.93,11.65A14.64,14.64,0,0,1,235.52,93.34Z" transform="translate(-11.69 -10.98)"/><path class="cls-1" d="M696.9,82.4c-.1-4.3-.8-9.1-.1-13.4.2-.9-9.8-.3-10.4,2.8-.1.63-.17,1.27-.22,1.92A76.46,76.46,0,0,0,670.9,75.8c-.84.2-1.79.42-2.81.68a3.9,3.9,0,0,0-2.79-1.08c-5.65-.36-11.3-.39-16.93-.32-.72-6.16-1.69-12.33-2.18-18.48q-1.5-19.5-2.4-39c0-2.2-10.4-.4-10.3,2.8.6,12.7,1.3,25.3,2.3,38,.41,5.56,1.27,11.21,2,16.88l-.88,0c-7.5.2-17.6.7-24.4-3.6-3.1-1.9-12.7,2.5-8.3,5.3a20.7,20.7,0,0,0,2.89,1.54c-.46,3.75.59,8.28,1.11,11.76.19,1.2.4,3.37.88,5.47a3.88,3.88,0,0,0-1.88-.57c-1,0-3.8-4.2-4.7-5.5-2.3-3.4-3.4-6.8-4.8-10.6-1.7-4.6-6.8-4.9-10.8-2.9a26.15,26.15,0,0,0-7.25,5.91c0-.9-.1-1.8-.15-2.71-.4-8.9-.6-17.8-.8-26.7-.2-8.6-.3-17.3-.3-25.9,0-4-.6-8.5,0-12.4.7-5.3-10-4-10.8.9-.7,4.2,0,9,0,13.2.1,9.1.2,18.1.4,27.1.15,6.72.3,13.5.57,20.25a1.54,1.54,0,0,0-.27-.35c-3.8-3.8-10.2-5.3-15.3-5.9a65.77,65.77,0,0,0-19.8.9c-6.5,1.2-14.2,2.7-19.7,6.8a8.07,8.07,0,0,0-2.75,3c-.18-3.94-.68-8.19,0-12,.1-.7-9.9-.2-10.4,2.8,0,.08,0,.16,0,.24-5.69,0-12.3,1.58-15.37,2.26-7.6,1.6-22.8,5.9-22.6,16a3.74,3.74,0,0,0,.08.7c0,.07,0,.13,0,.2a6.4,6.4,0,0,0,4,4.68,7.59,7.59,0,0,0-1.32.32c.8-.3.1.1-.8-.8-.7-.7-1.4-1.3-2-2a55.61,55.61,0,0,1-4.2-5.7c-2.2-3.3-4-6.8-8.6-6.1-2.74.47-4.93,2.42-6.74,5a37.48,37.48,0,0,0-4.16-8.55c-3-4.3-8.8-3.5-12.8-1.3a30.36,30.36,0,0,0-7.2,5.84V81.7c0-4.2.1-8.3.2-12.5,0-5.4-10.6-3.9-10.7.9-.1,4.5-.2,9-.2,13.5,0,3-.38,6.4-.3,9.65-1.05-3.27-.41-8.23-.5-11.35-.1-4.2-.8-8.9-.1-13.1.7-4.5-9.9-2.8-10.5,1.1-.09.56-.16,1.13-.21,1.7-2.4.08-4.7.41-6.19.6-8,.9-16.4,2.7-23.4,6.7-3.39,1.94-8.8,6.49-8.18,10.85a80.09,80.09,0,0,1-12.68-13.14A56.71,56.71,0,0,0,355.5,61.4c2.2-5.2,3.8-12.3.9-17.6-5.9-10.8-25.6-7.6-30.6,2.5-3.7,7.5.5,17.6,4,24.4a66.08,66.08,0,0,0,4.82,7.92C329.93,84,324.49,89.18,318.3,92.4c-1.8.9-3.7.1-5.5-2.7-2.2-3.5-2.8-8.1-3.1-12.1a86.35,86.35,0,0,1,.6-19c.5-3.5-9.9-1.6-10.4,1.6a96.93,96.93,0,0,0-.9,17c.2,6.7,1,16.7,8,20,11.1,5.2,24.4-6,31.6-13l.2-.2a80.94,80.94,0,0,0,7.1,7.3c8.3,7.5,18.2,11.8,27,18.5,6.7,5.1,22,19.7,14,28.7-3.8,4.3-11.8,5.7-17.2,6.6a53.45,53.45,0,0,1-17.4.2c-7.5-1.2-14.9-4-20.4-9.3-3.9-3.8-7.1-8.8-6.5-14.5,1-9.9,11.1-16.7,18.8-21.3,1.5-.9,3-2.3,1.1-3.6-1.8-1.1-5.8.1-7.4,1.1-10.4,6.3-26.8,17.7-22.2,32.2,3.2,10.4,14.4,16.6,24.2,19.2a66.38,66.38,0,0,0,25.9,1.4c9.4-1.2,20.8-3.8,28.3-9.8,11.2-8.9,2.3-21.7-5.4-29.5C382.34,104.74,374.49,101,367,96.08c4.74.93,10.27.51,14.07.32,4.77-.24,10.5-.64,15.66-2.15a10.33,10.33,0,0,0,.74,2.65c1.49,3.22,8.75,1.6,10.29-1A16.16,16.16,0,0,0,408.2,98c1.2,4.7,8.5,2,10.2-.8a69.59,69.59,0,0,1,10.4-13.5c.08-.08.31-.26.6-.48.64,1.26,1.57,2.87,1.7,3.18,2,4.5,4.2,9.2,5,14.1.7,4.6,8.9,2.1,10.2-.8.9-2,1.9-3.9,2.9-5.9l.37-.72A39,39,0,0,0,453.4,98c3.6,3.9,8.3,6.5,13.6,4.7,3.86-1.29,4.67-4.52,3.25-6.33,4.86,1,10.68.59,13.55.43,5.07-.25,11.23-.58,16.7-2.19a9.75,9.75,0,0,0,.7,2.59c1.1,2.3,11.1-1.3,10.4-2.8-1.32-2.73-.94-7.23-.82-10.69,1,2.13,3.7,3.94,6.62,5.09,10.2,4,21.8,3,32.2,6.3,4.7,1.5,10.3,7.2,4.1,10.5a19.53,19.53,0,0,1-7,2.1c-1.56,0-3.42-1.2-2.58-3,1.25-.76,2.36-1.92,1.48-3.24-1.1-1.7-5.6-.5-6.9,0-4.5,1.9-7.9,8.1-1.9,11.1,3.6,1.8,9.2.4,12.9-.4,7.4-1.8,23.6-8.2,14.8-18.1-4-4.5-11.8-5.4-17.4-6.3-6.3-1-12.8-1.6-19-3.1-1.8-.4-5.7-1.4-7-3.4-2.4-3.7,9.1-5.1,11.4-5.5,7.7-1.4,19.9-2.4,26.1,3.7,2,1.9,9.08-.36,10-2.62.08,1.94.17,3.88.28,5.82.2,4.1-.6,11.3,2,14.9,1.9,2.8,7.4,1.9,9.2-.7,1.3-2,2.7-3.9,4.1-5.7a58.44,58.44,0,0,1,3.9-4.8,4,4,0,0,1,.36-.37l0,.07a42.31,42.31,0,0,0,4.5,8.4c2.3,3.5,6,8.5,10.7,8.7,2.5.1,5.7-.6,6.8-3.3,0-.09.06-.17.08-.26a3.52,3.52,0,0,0,1.72,1.46,8.83,8.83,0,0,0,7.4-1c1.2-.8,3.4-3.3.9-4.1.5.2.2.1-.1-.6a12.94,12.94,0,0,1-.8-2.6,61.76,61.76,0,0,1-1.2-6.2c-.25-1.65-.65-3.55-.88-5.45a91.57,91.57,0,0,0,11.48.45c3.12,0,6.24-.09,9.37-.15.71,7.47.8,14.92-1.07,22.15-.7,2.7,9.6,1.2,10.3-1.7a51.59,51.59,0,0,0,1.42-9.21c2.92,5.42,16,4.39,20.38,4.21,5-.25,11.39-.55,17-2.13a10.56,10.56,0,0,0,.77,3.13c1.1,2.4,11.2-1.2,10.4-2.8C696.1,91.8,697,85.9,696.9,82.4ZM339.7,42.5c6.2.3,8.3,7.2,7.7,12.3a35.4,35.4,0,0,1-6,15.09A52.16,52.16,0,0,1,336.2,57.4C335.2,53.5,333.9,42.2,339.7,42.5Zm56.07,35.65a2.59,2.59,0,0,1-.17-.35A2.78,2.78,0,0,0,395.77,78.15Zm.19.28a2.15,2.15,0,0,1-.17-.24A2.68,2.68,0,0,0,396,78.43ZM391.7,88.5a61.3,61.3,0,0,1-10.5,1.1c-2.3.1-13,.9-11.9-3.1,1.1-4.4,10.7-5.9,14.2-6.7a52.81,52.81,0,0,1,8.9-1.1h3.2a5.2,5.2,0,0,1,.67.07l0,0c.1,1.63.21,3.24.28,4.78,0,1.05,0,2.3-.06,3.62a2.11,2.11,0,0,1-.44.18C394.6,87.7,393.2,88.2,391.7,88.5Zm104.2.1a66.88,66.88,0,0,1-9.9,1.2c-2.32.1-12,.94-13-1.82.83-4.56,9.33-6.13,12.92-7a56.16,56.16,0,0,1,10-1.5c1.2-.1,2.5,0,3.6-.1h.59c.1,1.74.23,3.46.31,5.1,0,.87,0,1.87,0,2.93l-.16.07C498.7,87.8,497.3,88.3,495.9,88.6Zm159.33-7.22a14.25,14.25,0,0,0-6,6.05c0-2-.12-4.08-.28-6.12Q652.11,81.31,655.23,81.38ZM672.5,91.3c-2.7.1-13,1.2-13.6-2.8v0s0-.05,0-.08c-.1-5.6,9.1-7.4,13.1-8.3a54.11,54.11,0,0,1,9-1.2,20.45,20.45,0,0,1,3.5,0c1,.1,1,.5.8-.1a1.93,1.93,0,0,0,.87.87c.1,1.88.25,3.75.33,5.53,0,1.14,0,2.5-.07,3.93a19,19,0,0,1-4,1A81.1,81.1,0,0,1,672.5,91.3Z" transform="translate(-11.69 -10.98)"/><path class="cls-1" d="M607.4,60.9a8.53,8.53,0,0,0,3.1,1.3,8.19,8.19,0,0,0,4.62-.33l.23-.08c.17-.07.34-.15.5-.23l.44-.21,0,0a6.87,6.87,0,0,0,1.56-1.13c1.4-1.3,2.6-3.9,1.2-5.7a5.05,5.05,0,0,0-3.9-1.5,11.4,11.4,0,0,0-6,1.5c-1.3.7-3,1.9-3.3,3.5A2.9,2.9,0,0,0,607.4,60.9Z" transform="translate(-11.69 -10.98)"/><path class="cls-1" d="M713.6,91.1a5.33,5.33,0,0,0-6.1-1.3c-2.4.9-4.4,2.4-4,5.2a4,4,0,0,0,2.89,3.48,2,2,0,0,0,.21.12,6.78,6.78,0,0,0,6.4-1.3A4.53,4.53,0,0,0,713.6,91.1Z" transform="translate(-11.69 -10.98)"/></svg>