<?xml version="1.0" encoding="utf-8"?>
<!-- Generator: Adobe Illustrator 21.1.0, SVG Export Plug-In . SVG Version: 6.00 Build 0)  -->
<svg version="1.1" id="Layer_2" xmlns="http://www.w3.org/2000/svg" xmlns:xlink="http://www.w3.org/1999/xlink" x="0px" y="0px"
	 viewBox="0 0 717.4 160" style="enable-background:new 0 0 717.4 160;" xml:space="preserve">
<g>
	<g>
		<path d="M155.8,34.3c0.5,9.9,0.8,19.8,0.9,29.8c0.3,14.5,0.9,29.3-0.9,43.7c-0.1,1.1,10,0.3,10.4-2.8c1.9-14.4,1.2-29.2,0.9-43.7
			c-0.2-9.9-0.5-19.8-0.9-29.8C166.2,29.9,155.7,31.5,155.8,34.3L155.8,34.3z"/>
	</g>
</g>
<g>
	<g>
		<path d="M27.3,22.7c-2.8,0-5.6,0-8.4,0c-1.4,1.7-2.8,3.5-4.3,5.2c46.8-3.4,94.6-5.3,141.4-1.4c12.4,1,25.2,2.3,37.2,5.9
			c4.8,1.5,26.5,7.6,22.3,15.1c-2.1,3.7-9.2,5.2-12.8,6.5c-5.4,2-10.8,4-16.2,6.1c-9.2,3.5-18.4,7.2-27.3,11.5
			c-3.5,1.7-12.3,5.1-13.2,9.7c-0.7,3.5,4.3,4.6,6.8,5.6c14.4,5.8,29,11.1,43.8,15.7c7.2,2.2,14.4,4.4,21.8,5.8
			c5.4,1,11.1,1.8,16.4-0.3c1.4-0.6,4-1.9,2.9-3.7c-1-1.6-5.6-0.3-6.8,0.2c1.1-0.5,2.4-0.1,0.9-0.4c-0.8-0.1-1.6-0.1-2.4-0.2
			c-2.9-0.3-5.7-1-8.6-1.6c-6.9-1.7-13.8-3.8-20.5-6c-12.9-4.2-25.6-8.8-38.1-13.9c-1.9-0.8-6.5-1.5-5.1-3.7c1.3-2,5.4-3.4,7.4-4.4
			c4.4-2.2,8.9-4.1,13.5-6c10-4.1,20.1-7.8,30.2-11.6c5.5-2,18.2-5.7,18.4-13.4c0.2-8.6-16.5-12.9-22.9-15.1
			c-11.2-3.7-23.2-5.3-34.9-6.5c-30.2-3-60.8-2.8-91.2-2c-19.6,0.5-39.1,1.3-58.7,2.8c-2,0.1-5.8,0.7-6.9,2.7
			c-1.1,2,0.9,2.5,2.7,2.5c2.8,0,5.6,0,8.4,0c2,0,5.9-0.8,6.9-2.7C31,23.2,29,22.7,27.3,22.7L27.3,22.7z"/>
	</g>
</g>
<g>
	<g>
		<path d="M184,76.5c0.2,3.4,0.8,9.1,4.2,10.9c3.1,1.7,8.2-0.1,10.9-1.5c4.6-2.4,7.2-7.3,9.5-11.7c0.9-1.6-3.7-1-4.1-0.9
			c-1.8,0.3-5.1,1-6.1,2.8c-1.4,2.5,0,6.2,1,8.5c5,11.4,15.7,18.2,23.7,27.1c8.3,9.3,9.5,23.7-1.2,31.8c-8,6-19.1-4-23.9-10.3
			c-2.9-3.8-5.3-8.6-4.8-13.4c0.7-7,6.8-10.5,12.9-12.4c1.1-0.3,4.1-1.4,3.1-2.9c-0.8-1.3-5.8,0.4-6.7,0.7
			c-11,3.5-23.8,11.3-18.5,24.6c3.9,9.9,15.3,19.7,26.2,19.9c11.9,0.3,25.8-6.7,29.4-18.7c5.1-17.4-12.8-27.3-22.4-38.5
			c-2.9-3.4-11.3-13.2-8.4-18.4c-3.4,0.6-6.9,1.3-10.3,1.9c-1,1.9-2.1,3.9-3.3,5.7c-0.2,0.3-3,3.4-3,3.5c0,0.1,5.4-1.1,5.4-1.6
			c0-0.2-0.6-0.5-0.7-0.7c-0.2-0.8-0.8-1.5-1.1-2.3c-0.8-2.2-1.2-4.6-1.3-6.8C194.3,72,183.8,73.8,184,76.5L184,76.5z"/>
	</g>
</g>
<g>
	<g>
		<path d="M237.9,68c-8.3-3.6-20.2,4.2-24.4,11.3c-5.7,9.6,7.6,18,15.9,18.5c7.8,0.5,16.6-3.3,19.4-11c3.3-8.9-3-14.3-10.3-18.6
			c-1.9-1.1-4.9-0.2-6.7,0.5c-0.5,0.2-4.7,2.2-3.1,3.2c4.5,2.6,10.6,6.3,10.7,12.1c0,3.6-2.2,8.1-4.3,9.7c0.8-0.6,1.2,0.2,0.5-0.3
			c-0.3-0.3-1.4-0.3-1.8-0.4c-1.8-0.6-3.5-1.5-5.1-2.5c-2.9-1.9-6.1-4.6-6.3-8.4c-0.1-3,1.9-5.5,4-7.5c0.9-0.9,1.9-1.6,2.9-2.3
			c0.4-0.3,1.5-0.7,1.7-1.1c0.8-0.5,0.4-0.4-1.2,0.2c-1.9,0.2-2.1,0.5-0.5,0.9C231.7,73.2,241.2,69.4,237.9,68z"/>
	</g>
</g>
<g>
	<g>
		<path d="M299.9,60.2c-0.8,5.6-1.1,11.4-0.9,17c0.2,6.7,1,16.7,8,20c11.1,5.2,24.4-6,31.6-13c6.8-6.5,13.3-14,16.9-22.8
			c2.2-5.2,3.8-12.3,0.9-17.6c-5.9-10.8-25.6-7.6-30.6,2.5c-3.7,7.5,0.5,17.6,4,24.4c4,7.8,9.6,14.7,16.1,20.6
			c8.3,7.5,18.2,11.8,27,18.5c6.7,5.1,22,19.7,14,28.7c-3.8,4.3-11.8,5.7-17.2,6.6c-5.7,1-11.6,1.1-17.4,0.2
			c-7.5-1.2-14.9-4-20.4-9.3c-3.9-3.8-7.1-8.8-6.5-14.5c1-9.9,11.1-16.7,18.8-21.3c1.5-0.9,3-2.3,1.1-3.6c-1.8-1.1-5.8,0.1-7.4,1.1
			c-10.4,6.3-26.8,17.7-22.2,32.2c3.2,10.4,14.4,16.6,24.2,19.2c8.4,2.3,17.2,2.5,25.9,1.4c9.4-1.2,20.8-3.8,28.3-9.8
			c11.2-8.9,2.3-21.7-5.4-29.5c-6.4-6.5-14.3-10.2-21.8-15.2c-13.7-9.1-26.4-22.4-30.7-38.6c-1-3.9-2.3-15.2,3.5-14.9
			c6.2,0.3,8.3,7.2,7.7,12.3c-0.9,7.6-5.1,14.5-9.9,20.4c-5.3,6.5-11.7,13.3-19.2,17.2c-1.8,0.9-3.7,0.1-5.5-2.7
			c-2.2-3.5-2.8-8.1-3.1-12.1c-0.5-6.3-0.3-12.7,0.6-19C310.8,55.1,300.4,57,299.9,60.2L299.9,60.2z"/>
	</g>
</g>
<g>
	<g>
		<path d="M405.9,75c-2.1-4.8-11.8-3.3-15.8-2.8c-8,0.9-16.4,2.7-23.4,6.7c-4.2,2.4-11.5,8.8-6.6,13.9c4.7,4.8,15,3.9,21,3.6
			c7.8-0.4,18.2-1.2,24.4-6.6c1.8-1.6,0.8-3.8-1.2-4.5c-2.5-0.9-5.5,0.3-7.4,2c1.1-1-0.3,0-0.8,0.1c-1.5,0.3-2.9,0.8-4.4,1.1
			c-3.4,0.7-7,1-10.5,1.1c-2.3,0.1-13,0.9-11.9-3.1c1.1-4.4,10.7-5.9,14.2-6.7c2.9-0.6,5.9-1,8.9-1.1c1.1,0,2.1,0,3.2,0
			c1.8,0.1,0.6,0.6,0-0.9C397.3,82,407.6,78.9,405.9,75L405.9,75z"/>
	</g>
</g>
<g>
	<g>
		<path d="M396.5,69.9c-0.7,4.4-0.1,9.3,0.1,13.7c0.1,3.7-0.7,9.8,0.9,13.3c1.8,3.9,12.1,0.7,10.4-2.8c-1.5-3.2-0.7-8.8-0.8-12.2
			c-0.1-4.2-0.8-8.9-0.1-13.1C407.7,64.3,397.1,66,396.5,69.9L396.5,69.9z"/>
	</g>
</g>
<g>
	<g>
		<path d="M408.1,70.1c-0.1,4.5-0.2,9-0.2,13.5c0,4.5-0.9,10,0.3,14.4c1.2,4.7,8.5,2,10.2-0.8c2.7-4.4,6.4-9.7,10.4-13.5
			c0.3-0.3,2.7-2,2.7-2c0,0-2.8,0.2-2.7,0c-0.2,0.3,2.1,4.2,2.3,4.7c2,4.5,4.2,9.2,5,14.1c0.7,4.6,8.9,2.1,10.2-0.8
			c0.9-2,1.9-3.9,2.9-5.9c0.8-1.5,1.5-3,2.3-4.4c0.3-0.6,0.9-1.3,1.1-1.9c0.3-1,1.8-0.8-0.7,0.2c-1.8,0.1-3.5,0.3-5.3,0.4
			c-1.8-0.5-0.8-0.8,0,0.6c0.5,1,1.2,1.9,1.9,2.8c1.5,2.2,3,4.5,4.9,6.5c3.6,3.9,8.3,6.5,13.6,4.7c6.3-2.1,4.5-9.4-1.9-7.2
			c0.8-0.3,0.1,0.1-0.8-0.8c-0.7-0.7-1.4-1.3-2-2c-1.6-1.8-2.9-3.8-4.2-5.7c-2.2-3.3-4-6.8-8.6-6.1c-7,1.2-10.4,12-13.1,17.6
			c3.4-0.3,6.8-0.5,10.2-0.8c-0.5-3-1.5-5.8-2.6-8.6c-1.5-3.8-3-8.5-5.4-11.8c-3-4.3-8.8-3.5-12.8-1.3c-7.5,4.2-12.9,12.8-17.3,19.9
			c3.4-0.3,6.8-0.5,10.2-0.8c-0.8-2.9-0.2-9.4-0.1-13.4c0-4.2,0.1-8.3,0.2-12.5C418.8,63.8,408.2,65.3,408.1,70.1L408.1,70.1z"/>
	</g>
</g>
<g>
	<g>
		<path d="M462.4,90.5c1.3,7.6,16.2,6.6,21.4,6.3c8.1-0.4,19-1,25.4-6.7c1.8-1.6,0.8-3.8-1.2-4.6c-2.5-0.9-5.5,0.3-7.4,2
			c1.1-0.9-0.1-0.1-0.4,0c-1.5,0.3-2.9,0.8-4.3,1.1c-3.3,0.7-6.6,1-9.9,1.2c-2.4,0.1-12.6,1-13.1-2.1
			C472.1,83.4,461.7,86,462.4,90.5L462.4,90.5z"/>
	</g>
</g>
<g>
	<g>
		<path d="M509.7,75.4c-3.1-7.1-19.4-3-24.8-1.8c-7.6,1.6-22.8,5.9-22.6,16c0.1,5.5,10.7,3.9,10.6-0.8c-0.1-5.2,9.2-6.9,13-7.8
			c3.3-0.8,6.6-1.3,10-1.5c1.2-0.1,2.5,0,3.6-0.1c2.3-0.1,0.8,0.7-0.1-1.3C501.3,82.8,511.6,79.8,509.7,75.4L509.7,75.4z"/>
	</g>
</g>
<g>
	<g>
		<path d="M500.3,71.1c-0.7,4.3-0.1,9.1,0.1,13.4c0.1,3.6-0.7,9.4,0.8,12.7c1.1,2.3,11.1-1.3,10.4-2.8c-1.6-3.3-0.7-9.2-0.8-12.7
			c-0.1-4.3-0.8-9.1-0.1-13.4C510.8,67.6,500.8,68.1,500.3,71.1L500.3,71.1z"/>
	</g>
</g>
<g>
	<g>
		<path d="M568.3,75.5c-3.8-3.8-10.2-5.3-15.3-5.9c-6.6-0.8-13.3-0.3-19.8,0.9c-6.5,1.2-14.2,2.7-19.7,6.8
			c-6.5,4.7-1.7,9.3,3.9,11.5c10.2,4,21.8,3,32.2,6.3c4.7,1.5,10.3,7.2,4.1,10.5c-2,1-4.8,2-7,2.1c-1.8,0-4-1.6-2-3.8
			c-0.9,0.6-1.9,1.3-2.8,1.9c0.3-0.1,0.6-0.2,0.9-0.4c1.5-0.6,4-2.1,2.8-3.9c-1.1-1.7-5.6-0.5-6.9,0c-4.5,1.9-7.9,8.1-1.9,11.1
			c3.6,1.8,9.2,0.4,12.9-0.4c7.4-1.8,23.6-8.2,14.8-18.1c-4-4.5-11.8-5.4-17.4-6.3c-6.3-1-12.8-1.6-19-3.1c-1.8-0.4-5.7-1.4-7-3.4
			c-2.4-3.7,9.1-5.1,11.4-5.5c7.7-1.4,19.9-2.4,26.1,3.7C561,81.8,570.9,78,568.3,75.5L568.3,75.5z"/>
	</g>
</g>
<g>
	<g>
		<path d="M567.6,15.3c-0.7,4.2,0,9,0,13.2c0.1,9.1,0.2,18.1,0.4,27.1c0.2,9,0.4,18.1,0.9,27.1c0.2,4.1-0.6,11.3,2,14.9
			c1.9,2.8,7.4,1.9,9.2-0.7c1.3-2,2.7-3.9,4.1-5.7c1.2-1.6,2.5-3.3,3.9-4.8c0.2-0.3,3.6-3.3,3.6-3.5c0,0.7-4.4-1.2-4.6-1.1
			c-0.3,0.2,1.2,4,1.4,4.3c1.2,3,2.7,5.8,4.5,8.4c2.3,3.5,6,8.5,10.7,8.7c2.5,0.1,5.7-0.6,6.8-3.3c0.9-2.3-0.8-4.6-3.3-4.7
			c-1,0-3.8-4.2-4.7-5.5c-2.3-3.4-3.4-6.8-4.8-10.6c-1.7-4.6-6.8-4.9-10.8-2.9c-6.6,3.4-11.5,11.2-15.5,17.2
			c3.1-0.2,6.1-0.4,9.2-0.7c0.6,0.9,0,0.1-0.1-0.8c-0.1-1-0.3-2-0.4-3c-0.3-3.1-0.4-6.3-0.6-9.5c-0.4-8.9-0.6-17.8-0.8-26.7
			c-0.2-8.6-0.3-17.3-0.3-25.9c0-4-0.6-8.5,0-12.4C579.1,9.1,568.4,10.4,567.6,15.3L567.6,15.3z"/>
	</g>
</g>
<g>
	<g>
		<path d="M607.4,76.9c-1.1,4,0.2,9.4,0.8,13.4c0.4,2.6,0.9,9.7,4.1,10.8c2.4,0.8,5.2,0.4,7.4-1c1.2-0.8,3.4-3.3,0.9-4.1
			c0.5,0.2,0.2,0.1-0.1-0.6c-0.4-0.8-0.6-1.8-0.8-2.6c-0.5-2-0.9-4.1-1.2-6.2c-0.5-3.3-1.6-7.6-0.7-10.9
			C618.9,71.8,608.4,73.3,607.4,76.9L607.4,76.9z"/>
	</g>
</g>
<g>
	<g>
		<path d="M633.5,20.4c0.6,12.7,1.3,25.3,2.3,38c1.1,14.9,5.4,30.5,1.6,45.2c-0.7,2.7,9.6,1.2,10.3-1.7c3.8-15-0.3-30.2-1.5-45.3
			c-1-13-1.8-26-2.4-39C643.8,15.4,633.4,17.2,633.5,20.4L633.5,20.4z"/>
	</g>
</g>
<g>
	<g>
		<path d="M604.2,77c6.8,4.4,17.2,4.7,24.9,4.6c10.7-0.1,21.4-0.6,32.2,0c2.1,0.1,5.9-0.8,6.9-2.9c1-2.2-0.9-3.2-2.9-3.3
			c-9.5-0.6-19-0.3-28.4-0.1c-7.5,0.2-17.6,0.7-24.4-3.6C609.4,69.8,599.8,74.2,604.2,77L604.2,77z"/>
	</g>
</g>
<g>
	<g>
		<path d="M648.6,91.2c1.2,7.1,16.1,5.9,20.9,5.7c7.9-0.4,19.4-0.9,25.7-6.5c1.7-1.5,1-2.9-0.9-3.5c-2.2-0.7-5.7,0.5-7.4,2
			c-0.4,0.4,0.3-0.1-0.4,0.2c-1.3,0.5-2.7,0.8-4.1,1c-3.2,0.6-6.6,1-9.9,1.2c-2.7,0.1-13,1.2-13.6-2.8
			C658.4,85.1,648,87.5,648.6,91.2L648.6,91.2z"/>
	</g>
</g>
<g>
	<g>
		<path d="M695.8,76.1c-1.2-2.7-6.3-2.4-8.6-2.4c-5.5,0-11,0.9-16.3,2.1c-7.3,1.7-22.6,5.6-22.4,15.4c0.1,2.6,10.5,0.8,10.4-2.8
			c-0.1-5.6,9.1-7.4,13.1-8.3c2.9-0.6,6-1.1,9-1.2c1.2-0.1,2.4-0.1,3.5,0c1,0.1,1,0.5,0.8-0.1C686.8,82,697,78.7,695.8,76.1
			L695.8,76.1z"/>
	</g>
</g>
<g>
	<g>
		<path d="M686.4,71.8c-0.7,4.3-0.1,9.1,0.1,13.4c0.1,3.6-0.7,9.4,0.8,12.7c1.1,2.4,11.2-1.2,10.4-2.8c-1.6-3.3-0.7-9.2-0.8-12.7
			c-0.1-4.3-0.8-9.1-0.1-13.4C697,68.1,687,68.7,686.4,71.8L686.4,71.8z"/>
	</g>
</g>
<g>
	<g>
		<path d="M616.9,56.1c-0.3-0.1-0.6-0.2-0.9-0.3C616.3,55.9,616.6,56.1,616.9,56.1c-0.4-0.1-0.8-0.3-1.2-0.6
			c0.2,0.2,0.5,0.4,0.7,0.6c-0.1-0.1-0.2-0.2-0.2-0.3c0.1,0.2,0.3,0.5,0.4,0.7c-0.1-0.1-0.1-0.2-0.1-0.3c0,0.3,0,0.6,0,0.8
			c0-0.1,0-0.1,0-0.1c-0.1,0.3-0.2,0.6-0.3,0.9c0-0.1,0.1-0.1,0.1-0.2c-0.2,0.3-0.4,0.6-0.7,0.8c0.5-0.6-0.9,0.6-0.5,0.3
			c0.5-0.3-0.9,0.5-0.8,0.4c0.6-0.3-1.5,0.4-0.9,0.3c0.2-0.1,0.7-0.1-0.4,0.1c-1.3,0.3,0.3,0.1-1,0.1c-1.2,0,0.2,0.1-0.9-0.1
			c-0.8-0.1-0.5-0.1-0.3,0c-0.3-0.1-0.7-0.3-1-0.4c0.1,0,0.1,0.1,0.2,0.1c-0.2-0.2-0.5-0.4-0.7-0.6c0.1,0.1,0.1,0.1,0.2,0.2
			c-0.1-0.2-0.3-0.5-0.4-0.7c0.1,0.2,0.1,0.4,0.1,0.6c0-0.3,0-0.6,0-0.8c0,0.3-0.1,0.5-0.2,0.8c0.1-0.3,0.2-0.6,0.3-0.9
			c-0.1,0.2-0.3,0.5-0.4,0.7c0.2-0.3,0.4-0.6,0.7-0.8c-0.1,0.1-0.2,0.2-0.2,0.3c-0.6,0.6-1.2,1.6-1,2.5c0.2,0.9,1.3,1.5,2.1,1.7
			c2.5,0.6,5.5-0.2,7.4-2c1.4-1.3,2.6-3.9,1.2-5.7c-0.9-1.1-2.5-1.5-3.9-1.5c-2.1-0.1-4.2,0.5-6,1.5c-1.3,0.7-3,1.9-3.3,3.5
			c-0.2,1.3,0.5,2.2,1.5,2.9c0.9,0.7,2,1,3.1,1.3c1.2,0.3,2.7,0.2,3.9-0.1c1.2-0.3,2.6-1,3.5-1.9c0.6-0.6,1.3-1.6,1-2.5
			C618.7,56.9,617.9,56.4,616.9,56.1z"/>
	</g>
</g>
<g>
	<g>
		<path d="M708.2,96.8c-0.9,0.2-1.4-1.6-1.6-2.2c-0.2-1.2,0.1-1.9,1.1-2.6c2.7-1.6,5.2,1.4,3.6,3.9c-0.5,0.8-2.2,1.5-2.9,0.6
			c-0.4-0.5-0.3-1.8-0.2-2.4c0.1-0.5,0.8-1.3,1.4-0.8c0.3,0.3,0.3,1.2,0.3,1.5c-0.2,0.3-0.2,0.5,0,0.4c0.2,0,0.1,0-0.4,0.2
			c0.1,0.3,0.5-0.9,0.8-1.1c0.6-0.3,0.7-1,0.2-1.4c-0.6-0.5-1.6-0.1-2.1,0.2c-1.3,0.8-2.6,3.3-0.7,4.2c1.4,0.6,4.3-0.4,4.8-1.9
			c0.7-1.8-0.2-3.9-2.1-4.3c-2-0.4-4.5,0.6-5.2,2.6c-0.5,1.5-0.4,4.2,1.4,4.9c1.9,0.7,4.9,0.2,6.4-1.3c1.7-1.7,2.2-4.3,0.6-6.2
			c-1.5-1.8-3.9-2.1-6.1-1.3c-2.4,0.9-4.4,2.4-4,5.2c0.4,2.6,2.5,4.1,5,3.5C710.5,98.2,710,96.4,708.2,96.8L708.2,96.8z"/>
	</g>
</g>
<g>
	<g>
		<path d="M709.1,95.8c0.6,0,3.3-1.2,1.9-1.2C710.4,94.6,707.8,95.8,709.1,95.8L709.1,95.8z"/>
	</g>
</g>
</svg>
