<?xml version="1.0" encoding="utf-8"?>
<!-- Generator: Adobe Illustrator 21.1.0, SVG Export Plug-In . SVG Version: 6.00 Build 0)  -->
<svg version="1.1" id="Layer_1" xmlns="http://www.w3.org/2000/svg" xmlns:xlink="http://www.w3.org/1999/xlink" x="0px" y="0px"
	 viewBox="0 0 512 512" style="enable-background:new 0 0 512 512;" xml:space="preserve">
<style type="text/css">
	.st0{fill:#118AB2;}
</style>
<title></title>
<g id="_1">
	<path class="st0" d="M413,353.1H97.2c-23.8,0-43.1-19.3-43.1-43.1V100.4c0-23.8,19.3-43.1,43.1-43.1H413
		c23.8,0,43.1,19.3,43.1,43.1V310C456.1,333.8,436.8,353.1,413,353.1z M97.2,87.2c-7.2,0-13.1,5.9-13.1,13.1V310
		c0,7.2,5.9,13.1,13.1,13.1H413c7.2,0,13.1-5.9,13.1-13.1V100.4c0-7.2-5.9-13.1-13.1-13.1H97.2z"/>
	<path class="st0" d="M324.1,405.6h-138c-8.3,0-15-6.7-15-15c0-1.8,0.3-3.6,1-5.3l20-52.5c2.2-5.8,7.8-9.7,14-9.7h98
		c6.2,0,11.8,3.8,14,9.7l20,52.5c2.9,7.7-0.9,16.4-8.7,19.4C327.8,405.3,325.9,405.6,324.1,405.6z M207.9,375.6h94.5l-8.6-22.5
		h-77.3L207.9,375.6z"/>
	<path class="st0" d="M354.6,405.6h-199c-8.3,0-15-6.7-15-15s6.7-15,15-15h199c8.3,0,15,6.7,15,15S362.9,405.6,354.6,405.6z"/>
	<path class="st0" d="M441.1,303.7h-372c-8.3,0-15-6.7-15-15s6.7-15,15-15h372c8.3,0,15,6.7,15,15S449.4,303.7,441.1,303.7z"/>
</g>
</svg>
